<?xml version="1.0" encoding="UTF-8"?>
<svg xmlns="http://www.w3.org/2000/svg" xmlns:xlink="http://www.w3.org/1999/xlink" viewBox="0 0 261 261" width="261px" height="261px">
<g id="surface199184174">
<path style=" stroke:none;fill-rule:nonzero;fill:rgb(16.862746%,63.137257%,99.215686%);fill-opacity:1;" d="M 239.25 130.5 C 239.25 190.5625 190.5625 239.25 130.5 239.25 C 70.4375 239.25 21.75 190.5625 21.75 130.5 C 21.75 70.4375 70.4375 21.75 130.5 21.75 C 190.5625 21.75 239.25 70.4375 239.25 130.5 Z M 239.25 130.5 "/>
<path style=" stroke:none;fill-rule:nonzero;fill:rgb(12.941177%,0%,76.862746%);fill-opacity:1;" d="M 195.664062 43.585938 C 209.316406 61.757812 217.5 84.269531 217.5 108.75 C 217.5 168.8125 168.8125 217.5 108.75 217.5 C 84.269531 217.5 61.757812 209.316406 43.585938 195.664062 C 63.421875 222.082031 94.917969 239.25 130.5 239.25 C 190.5625 239.25 239.25 190.5625 239.25 130.5 C 239.25 94.917969 222.082031 63.421875 195.664062 43.585938 Z M 195.664062 43.585938 "/>
<path style=" stroke:none;fill-rule:nonzero;fill:rgb(12.941177%,0%,76.862746%);fill-opacity:1;" d="M 59.8125 106.03125 C 59.8125 110.535156 56.160156 114.1875 51.65625 114.1875 C 47.152344 114.1875 43.5 110.535156 43.5 106.03125 C 43.5 101.527344 47.152344 97.875 51.65625 97.875 C 56.160156 97.875 59.8125 101.527344 59.8125 106.03125 Z M 59.8125 106.03125 "/>
<path style=" stroke:none;fill-rule:nonzero;fill:rgb(12.941177%,0%,76.862746%);fill-opacity:1;" d="M 125.0625 67.96875 C 125.0625 78.480469 116.542969 87 106.03125 87 C 95.519531 87 87 78.480469 87 67.96875 C 87 57.457031 95.519531 48.9375 106.03125 48.9375 C 116.542969 48.9375 125.0625 57.457031 125.0625 67.96875 Z M 125.0625 67.96875 "/>
<path style=" stroke:none;fill-rule:nonzero;fill:rgb(12.941177%,0%,76.862746%);fill-opacity:1;" d="M 103.3125 160.40625 C 103.3125 167.914062 97.226562 174 89.71875 174 C 82.210938 174 76.125 167.914062 76.125 160.40625 C 76.125 152.898438 82.210938 146.8125 89.71875 146.8125 C 97.226562 146.8125 103.3125 152.898438 103.3125 160.40625 Z M 103.3125 160.40625 "/>
<path style=" stroke:none;fill-rule:nonzero;fill:rgb(12.941177%,0%,76.862746%);fill-opacity:1;" d="M 195.75 130.5 C 195.75 136.507812 190.882812 141.375 184.875 141.375 C 178.867188 141.375 174 136.507812 174 130.5 C 174 124.492188 178.867188 119.625 184.875 119.625 C 190.882812 119.625 195.75 124.492188 195.75 130.5 Z M 195.75 130.5 "/>
</g>
</svg>
